HIERARCHY
ROOT Hips
{
	OFFSET 0.000000 100.481300 0.000000
	CHANNELS 6 Xposition Yposition Zposition Xrotation Yrotation Zrotation
	JOINT Spine
	{
		OFFSET -0.279200 12.230698 -2.892100
		CHANNELS 3 Xrotation Yrotation Zrotation
		JOINT Spine1
		{
			OFFSET -0.325700 14.269203 -3.374200
			CHANNELS 3 Xrotation Yrotation Zrotation
			JOINT Spine2
			{
				OFFSET -0.372300 16.307602 -0.352600
				CHANNELS 3 Xrotation Yrotation Zrotation
				JOINT Neck
				{
					OFFSET -0.418800 17.814194 8.416900
					CHANNELS 3 Xrotation Yrotation Zrotation
					JOINT Head
					{
						OFFSET 0.000000 7.031097 3.806800
						CHANNELS 3 Xrotation Yrotation Zrotation
						JOINT HeadTop_End
						{
							OFFSET 0.000000 24.646606 12.978600
							CHANNELS 3 Xrotation Yrotation Zrotation
							End Site
							{
								OFFSET 0.000000 27.854965 0.000000
							}
						}
					}
				}
				JOINT LeftShoulder
				{
					OFFSET 16.952999 14.495407 -7.737500
					CHANNELS 3 Xrotation Yrotation Zrotation
					JOINT LeftArm
					{
						OFFSET 9.308998 -2.777710 0.208600
						CHANNELS 3 Xrotation Yrotation Zrotation
						JOINT LeftForeArm
						{
							OFFSET 29.972298 0.000000 0.000000
							CHANNELS 3 Xrotation Yrotation Zrotation
							JOINT LeftHand
							{
								OFFSET 26.026505 0.000000 0.000000
								CHANNELS 3 Xrotation Yrotation Zrotation
								JOINT LeftHandThumb1
								{
									OFFSET 12.240501 -7.147949 9.207150
									CHANNELS 3 Xrotation Yrotation Zrotation
									JOINT LeftHandThumb2
									{
										OFFSET 4.138618 -2.389435 2.389433
										CHANNELS 3 Xrotation Yrotation Zrotation
										JOINT LeftHandThumb3
										{
											OFFSET 2.726913 -1.574387 1.574386
											CHANNELS 3 Xrotation Yrotation Zrotation
											JOINT LeftHandThumb4
											{
												OFFSET 3.941010 -2.275345 2.275342
												CHANNELS 3 Xrotation Yrotation Zrotation
												End Site
												{
													OFFSET -0.005798 5.087799 0.009903
												}
											}
										}
									}
								}
								JOINT LeftHandIndex1
								{
									OFFSET 24.424698 -1.985611 5.953459
									CHANNELS 3 Xrotation Yrotation Zrotation
									JOINT LeftHandIndex2
									{
										OFFSET 6.426697 0.000000 0.000000
										CHANNELS 3 Xrotation Yrotation Zrotation
										JOINT LeftHandIndex3
										{
											OFFSET 5.337898 0.000000 0.000000
											CHANNELS 3 Xrotation Yrotation Zrotation
											JOINT LeftHandIndex4
											{
												OFFSET 4.409401 0.000000 0.000000
												CHANNELS 3 Xrotation Yrotation Zrotation
												End Site
												{
													OFFSET 0.000000 4.409363 0.014373
												}
											}
										}
									}
								}
								JOINT LeftHandMiddle1
								{
									OFFSET 23.810104 0.000000 0.000000
									CHANNELS 3 Xrotation Yrotation Zrotation
									JOINT LeftHandMiddle2
									{
										OFFSET 7.176498 0.000000 0.000000
										CHANNELS 3 Xrotation Yrotation Zrotation
										JOINT LeftHandMiddle3
										{
											OFFSET 6.774902 0.000000 0.000000
											CHANNELS 3 Xrotation Yrotation Zrotation
											JOINT LeftHandMiddle4
											{
												OFFSET 5.403328 0.000000 0.000000
												CHANNELS 3 Xrotation Yrotation Zrotation
												End Site
												{
													OFFSET -0.027702 5.403244 0.017414
												}
											}
										}
									}
								}
								JOINT LeftHandRing1
								{
									OFFSET 22.908401 -0.839279 -6.020567
									CHANNELS 3 Xrotation Yrotation Zrotation
									JOINT LeftHandRing2
									{
										OFFSET 6.337502 0.000000 0.000000
										CHANNELS 3 Xrotation Yrotation Zrotation
										JOINT LeftHandRing3
										{
											OFFSET 5.779297 0.000000 0.000000
											CHANNELS 3 Xrotation Yrotation Zrotation
											JOINT LeftHandRing4
											{
												OFFSET 4.965698 0.000000 0.000000
												CHANNELS 3 Xrotation Yrotation Zrotation
												End Site
												{
													OFFSET 0.000000 4.965668 0.016186
												}
											}
										}
									}
								}
								JOINT LeftHandPinky1
								{
									OFFSET 20.037003 -1.530319 -10.950146
									CHANNELS 3 Xrotation Yrotation Zrotation
									JOINT LeftHandPinky2
									{
										OFFSET 5.254700 0.000000 0.000000
										CHANNELS 3 Xrotation Yrotation Zrotation
										JOINT LeftHandPinky3
										{
											OFFSET 4.810204 0.000000 0.000000
											CHANNELS 3 Xrotation Yrotation Zrotation
											JOINT LeftHandPinky4
											{
												OFFSET 3.647202 0.000000 0.000000
												CHANNELS 3 Xrotation Yrotation Zrotation
												End Site
												{
													OFFSET 0.000000 3.647186 0.011889
												}
											}
										}
									}
								}
							}
						}
					}
				}
				JOINT RightShoulder
				{
					OFFSET -15.141001 14.495407 -7.737500
					CHANNELS 3 Xrotation Yrotation Zrotation
					JOINT RightArm
					{
						OFFSET -9.308998 -2.777710 0.208500
						CHANNELS 3 Xrotation Yrotation Zrotation
						JOINT RightForeArm
						{
							OFFSET -29.972300 0.000000 0.000000
							CHANNELS 3 Xrotation Yrotation Zrotation
							JOINT RightHand
							{
								OFFSET -26.026505 0.000000 0.000000
								CHANNELS 3 Xrotation Yrotation Zrotation
								JOINT RightHandThumb1
								{
									OFFSET -12.240601 -7.148026 9.207092
									CHANNELS 3 Xrotation Yrotation Zrotation
									JOINT RightHandThumb2
									{
										OFFSET -4.138618 -2.389435 2.389433
										CHANNELS 3 Xrotation Yrotation Zrotation
										JOINT RightHandThumb3
										{
											OFFSET -2.726974 -1.574417 1.574421
											CHANNELS 3 Xrotation Yrotation Zrotation
											JOINT RightHandThumb4
											{
												OFFSET -3.941010 -2.275345 2.275343
												CHANNELS 3 Xrotation Yrotation Zrotation
												End Site
												{
													OFFSET 0.005814 5.087799 0.009927
												}
											}
										}
									}
								}
								JOINT RightHandIndex1
								{
									OFFSET -24.424698 -1.985657 5.953444
									CHANNELS 3 Xrotation Yrotation Zrotation
									JOINT RightHandIndex2
									{
										OFFSET -6.426697 0.000000 0.000000
										CHANNELS 3 Xrotation Yrotation Zrotation
										JOINT RightHandIndex3
										{
											OFFSET -5.337898 0.000000 0.000000
											CHANNELS 3 Xrotation Yrotation Zrotation
											JOINT RightHandIndex4
											{
												OFFSET -4.409401 0.000000 0.000000
												CHANNELS 3 Xrotation Yrotation Zrotation
												End Site
												{
													OFFSET 0.000000 4.409363 0.014408
												}
											}
										}
									}
								}
								JOINT RightHandMiddle1
								{
									OFFSET -23.810097 0.000000 0.000000
									CHANNELS 3 Xrotation Yrotation Zrotation
									JOINT RightHandMiddle2
									{
										OFFSET -7.176498 0.000000 0.000000
										CHANNELS 3 Xrotation Yrotation Zrotation
										JOINT RightHandMiddle3
										{
											OFFSET -6.774902 0.000000 0.000000
											CHANNELS 3 Xrotation Yrotation Zrotation
											JOINT RightHandMiddle4
											{
												OFFSET -5.403328 0.000000 0.000000
												CHANNELS 3 Xrotation Yrotation Zrotation
												End Site
												{
													OFFSET 0.027702 5.403244 0.017457
												}
											}
										}
									}
								}
								JOINT RightHandRing1
								{
									OFFSET -22.908302 -0.839325 -6.020576
									CHANNELS 3 Xrotation Yrotation Zrotation
									JOINT RightHandRing2
									{
										OFFSET -6.337502 0.000000 0.000000
										CHANNELS 3 Xrotation Yrotation Zrotation
										JOINT RightHandRing3
										{
											OFFSET -5.779297 0.000000 0.000000
											CHANNELS 3 Xrotation Yrotation Zrotation
											JOINT RightHandRing4
											{
												OFFSET -4.965698 0.000000 0.000000
												CHANNELS 3 Xrotation Yrotation Zrotation
												End Site
												{
													OFFSET 0.000000 4.965668 0.016226
												}
											}
										}
									}
								}
								JOINT RightHandPinky1
								{
									OFFSET -20.037003 -1.530334 -10.950259
									CHANNELS 3 Xrotation Yrotation Zrotation
									JOINT RightHandPinky2
									{
										OFFSET -5.254700 0.000000 0.000000
										CHANNELS 3 Xrotation Yrotation Zrotation
										JOINT RightHandPinky3
										{
											OFFSET -4.810204 0.000000 0.000000
											CHANNELS 3 Xrotation Yrotation Zrotation
											JOINT RightHandPinky4
											{
												OFFSET -3.647202 0.000000 0.000000
												CHANNELS 3 Xrotation Yrotation Zrotation
												End Site
												{
													OFFSET 0.000000 3.647186 0.011917
												}
											}
										}
									}
								}
							}
						}
					}
				}
			}
		}
	}
	JOINT LeftUpLeg
	{
		OFFSET 15.427100 -6.655098 0.678600
		CHANNELS 3 Xrotation Yrotation Zrotation
		JOINT LeftLeg
		{
			OFFSET 4.081073 -39.591068 13.024000
			CHANNELS 3 Xrotation Yrotation Zrotation
			JOINT LeftFoot
			{
				OFFSET -4.081074 -37.707932 -15.979700
				CHANNELS 3 Xrotation Yrotation Zrotation
				JOINT LeftToeBase
				{
					OFFSET 5.346399 -15.068900 20.645000
					CHANNELS 3 Xrotation Yrotation Zrotation
					JOINT LeftToe_End
					{
						OFFSET 2.754700 0.931300 11.300900
						CHANNELS 3 Xrotation Yrotation Zrotation
						End Site
						{
							OFFSET 0.000000 11.669021 0.000000
						}
					}
				}
			}
		}
	}
	JOINT RightUpLeg
	{
		OFFSET -15.569500 -6.655098 0.678600
		CHANNELS 3 Xrotation Yrotation Zrotation
		JOINT RightLeg
		{
			OFFSET -4.081825 -39.591045 13.023800
			CHANNELS 3 Xrotation Yrotation Zrotation
			JOINT RightFoot
			{
				OFFSET 4.081824 -37.707954 -15.979600
				CHANNELS 3 Xrotation Yrotation Zrotation
				JOINT RightToeBase
				{
					OFFSET -5.346400 -15.068900 20.645000
					CHANNELS 3 Xrotation Yrotation Zrotation
					JOINT RightToe_End
					{
						OFFSET -2.754700 0.931300 11.300900
						CHANNELS 3 Xrotation Yrotation Zrotation
						End Site
						{
							OFFSET 0.000000 11.669021 0.000000
						}
					}
				}
			}
		}
	}
}
MOTION
Frames: 5
Frame Time: 0.033333
-1.116061 89.362610 -2.371104 -2.189040 -1.214201 0.422702 6.514739 -0.183795 4.514404 10.518065 -0.070337 0.420229 10.517359 -0.064072 0.421685 2.859924 -0.645815 0.703465 17.864344 -3.290605 5.960687 -0.000000 0.000000 -0.000000 0.525885 -4.275676 -18.368305 -25.500257 -14.008914 -64.735242 -0.000001 -4.972674 0.000012 -18.086295 -6.899658 -8.801168 -0.266443 4.548716 10.792710 14.081227 6.218289 10.788928 -1.566745 -26.614858 15.516532 0.000001 -0.000000 -0.000001 0.204661 3.652305 -14.856548 0.530651 2.438288 -24.552512 0.191599 1.487503 -14.678797 0.000000 -0.000000 -0.000001 1.303318 7.387712 -16.322375 0.454978 2.265470 -22.708564 0.407967 2.149780 -21.488286 -0.000000 0.000001 0.000001 1.739691 8.580067 -17.229205 1.308150 3.691266 -39.016711 0.356831 2.015145 -20.081154 -0.000000 -0.000000 -0.000000 0.752476 5.170461 -23.679451 0.713277 2.803422 -28.544680 0.183450 1.456044 -14.361501 0.000000 0.000000 0.000001 -0.499291 11.443804 25.065047 -17.413060 19.136769 48.615046 -0.000001 19.515908 -0.000006 10.130915 3.241125 9.044070 -6.439881 1.666970 -14.227989 17.755591 -20.829596 7.631443 -18.165115 14.322935 -9.874778 -0.000002 0.000000 -0.000000 -1.320205 3.014081 14.432874 0.617907 -2.320003 29.823761 0.424781 -1.944995 24.637408 0.000003 -0.000002 -0.000000 -1.183821 0.855428 17.866361 1.041092 -2.936771 39.031953 0.324044 -1.708449 21.477849 -0.000001 0.000000 0.000000 -0.099495 -2.403337 15.770232 1.477862 -3.404877 46.915900 0.279700 -1.591195 19.937824 0.000001 -0.000001 -0.000001 -12.813809 -11.028482 13.057108 1.001218 -2.886967 38.247065 0.242493 -1.484654 18.551627 0.000001 0.000002 0.000002 -20.385459 4.881531 6.525486 45.027858 6.456136 0.048851 -3.606589 0.848318 -5.848477 -15.799288 0.476374 -1.821581 -0.000000 -0.000000 0.000000 -11.264637 -6.209731 1.907735 32.414937 -8.956380 -1.663417 -19.372150 -2.368480 1.147473 0.004426 0.000014 -0.008685 0.000000 0.000001 0.000000 
-1.477576 90.306458 0.342526 -1.790201 -2.401270 1.187748 6.558854 0.465114 3.647426 10.531154 0.073684 0.294559 10.531104 0.078720 0.293166 2.844241 -0.679831 0.733728 17.810878 -3.324185 5.958292 -0.000002 0.000000 0.000000 0.521701 -4.355688 -18.127867 -25.368887 -14.211288 -64.629238 0.000002 -5.750727 -0.000004 -17.905192 -6.282741 -9.738064 -0.266443 4.548713 10.792709 14.049989 5.846109 10.969236 -1.505426 -26.827906 15.736537 -0.000002 0.000002 0.000002 0.225439 3.730034 -14.801546 0.524672 2.425166 -24.411537 0.191314 1.486403 -14.667719 -0.000001 -0.000000 -0.000002 1.316014 7.468072 -16.148213 0.452928 2.260566 -22.656619 0.407332 2.148172 -21.471388 -0.000000 -0.000000 -0.000003 1.756933 8.649325 -17.173397 1.300839 3.682250 -38.903088 0.356375 2.013895 -20.068137 -0.000001 0.000000 0.000001 0.828422 5.352362 -23.349756 0.713020 2.802954 -28.539496 0.183114 1.454721 -14.348166 -0.000000 -0.000000 -0.000001 -0.529686 11.752858 24.900266 -18.392653 21.872390 47.572380 -0.000005 19.186840 0.000011 10.994511 3.585142 8.671753 -6.439875 1.666972 -14.227990 17.775103 -20.867478 7.652826 -18.152773 14.396475 -9.915977 -0.000003 -0.000003 -0.000002 -1.348571 3.017195 14.666745 0.614485 -2.314049 29.739327 0.426490 -1.948713 24.687618 0.000000 0.000001 -0.000000 -1.214304 0.925489 17.961717 1.042110 -2.938035 39.051842 0.324141 -1.708704 21.481266 -0.000001 -0.000001 -0.000000 -0.101284 -2.411495 15.959866 1.482126 -3.408850 46.987719 0.280695 -1.593942 19.973775 -0.000001 0.000000 -0.000000 -12.824696 -11.006421 13.168448 1.001700 -2.887575 38.256682 0.242582 -1.484928 18.555145 0.000001 0.000000 0.000002 -22.826839 4.878988 5.070409 38.849245 7.592410 -0.153622 -1.747706 0.368310 -3.963211 -9.490360 0.244041 -1.712768 -0.000000 0.000001 -0.000000 -8.571034 -6.294651 1.231157 30.227975 -8.559786 -1.626227 -20.332645 -1.281092 1.445592 0.010274 0.000020 -0.023188 0.000000 0.000000 -0.000000 
-1.719334 91.075531 2.866916 -1.083751 -3.615820 2.108417 6.486128 0.953490 2.704411 10.522991 0.198427 0.220371 10.523411 0.201964 0.216859 2.813569 -0.702694 0.725945 17.700990 -3.379842 5.844142 -0.000001 -0.000000 -0.000000 0.518403 -4.403700 -18.125065 -25.084515 -14.768283 -64.436251 0.000003 -6.555762 0.000018 -16.983146 -5.647555 -10.532705 -0.266442 4.548717 10.792712 13.772907 5.000691 11.322550 -1.360955 -27.370117 16.236579 -0.000000 0.000001 -0.000002 0.239451 3.783335 -14.864956 0.511203 2.395293 -24.091271 0.191070 1.485470 -14.658289 0.000001 0.000000 -0.000002 1.323608 7.500231 -16.118796 0.452937 2.260598 -22.656933 0.406684 2.146530 -21.454154 -0.000000 0.000000 -0.000003 1.763515 8.678172 -17.143836 1.298297 3.679099 -38.863459 0.356014 2.012910 -20.057868 -0.000000 -0.000000 -0.000001 0.857864 5.424993 -23.223248 0.713238 2.803346 -28.543886 0.182502 1.452320 -14.323986 -0.000001 0.000000 -0.000001 -0.525737 11.948556 24.470741 -19.553322 24.037299 46.916856 -0.000009 19.298659 0.000009 11.242764 4.099900 7.931964 -6.439878 1.666973 -14.227991 17.810937 -20.926829 7.692152 -18.126036 14.559561 -10.006786 -0.000001 0.000000 -0.000001 -1.400062 3.049901 15.015665 0.615085 -2.315100 29.754035 0.427737 -1.951413 24.724130 0.000002 0.000001 0.000002 -1.261461 1.009386 18.189086 1.043291 -2.939490 39.075116 0.324575 -1.709789 21.495674 -0.000001 0.000001 -0.000001 -0.119239 -2.371056 16.244522 1.487210 -3.413577 47.073131 0.281087 -1.595013 19.987633 0.000001 -0.000000 0.000000 -12.831072 -10.994504 13.402798 1.004564 -2.891203 38.313485 0.242921 -1.485924 18.567985 0.000003 -0.000002 -0.000001 -25.179455 5.097395 3.960189 32.055140 7.456341 -0.460643 -0.886180 0.340279 -4.490615 -3.079994 -0.000010 0.000001 0.000000 -0.000000 -0.000000 -6.654403 -6.373369 0.511323 28.275134 -7.275863 -1.672972 -21.072433 -1.058649 1.170940 -0.012077 0.000010 0.000000 0.000000 0.000001 0.000000 
-1.924016 91.712936 5.161946 -0.244634 -4.887358 2.910172 6.351991 1.211648 1.812395 10.508050 0.283758 0.200177 10.508797 0.286151 0.195431 2.777033 -0.702587 0.698581 17.579934 -3.365132 5.673653 0.000001 -0.000001 0.000000 0.519514 -4.377135 -18.219535 -24.805598 -15.352727 -64.252061 0.000001 -6.713348 -0.000005 -15.612043 -5.210125 -10.926595 -0.266443 4.548716 10.792711 12.672303 1.949313 12.554650 -0.306649 -30.410891 19.204380 -0.000001 0.000001 -0.000001 0.247017 3.812758 -15.082504 0.498832 2.367451 -23.793516 0.191330 1.486476 -14.668487 0.000000 -0.000000 -0.000003 1.334845 7.510582 -16.242065 0.453219 2.261272 -22.664067 0.405964 2.144694 -21.434875 0.000000 0.000000 -0.000001 1.766051 8.665369 -17.219549 1.298189 3.678967 -38.861775 0.356004 2.012885 -20.057667 -0.000000 -0.000000 0.000000 0.856024 5.422057 -23.208300 0.714023 2.804789 -28.559912 0.182301 1.451547 -14.316196 0.000000 0.000000 0.000002 -0.514645 12.124767 24.004362 -20.829591 25.727552 46.513342 0.000005 19.350225 -0.000006 10.686066 4.884794 6.960930 -6.439872 1.666975 -14.227993 17.857927 -21.001715 7.743280 -18.096159 14.738005 -10.106995 -0.000000 -0.000003 -0.000000 -1.465074 3.076063 15.472819 0.618420 -2.320903 29.836459 0.425780 -1.947142 24.666518 0.000002 -0.000003 0.000000 -1.317622 1.093997 18.501599 1.044538 -2.941012 39.099206 0.325175 -1.711314 21.515808 0.000000 -0.000003 0.000002 -0.143669 -2.314378 16.573896 1.492661 -3.418627 47.164574 0.281078 -1.595012 19.987688 0.000000 -0.000002 -0.000001 -12.834384 -10.990335 13.701915 1.008241 -2.895848 38.386411 0.243245 -1.486889 18.580587 -0.000002 -0.000001 -0.000001 -27.640022 5.500629 3.205346 25.551587 6.190285 -0.861937 -1.014417 0.407574 -4.772704 -1.701091 0.000001 0.000003 0.000000 -0.000001 0.000000 -5.178570 -6.403511 -0.163861 26.443610 -6.050188 -1.671107 -21.592169 -0.850972 0.854977 -0.053498 -0.000009 -0.000000 -0.000000 0.000001 -0.000000 
-2.136604 92.329033 7.326279 0.587870 -6.129421 3.358425 6.209345 1.245537 1.098402 10.507111 0.325555 0.212905 10.508051 0.327362 0.207614 2.758157 -0.682899 0.677323 17.510964 -3.263328 5.541606 0.000001 0.000000 -0.000000 0.520523 -4.350685 -18.288045 -24.634226 -15.725332 -64.106701 0.000007 -5.889680 0.000026 -14.425383 -5.093853 -10.755996 -0.266443 4.548716 10.792711 11.594717 -1.523637 13.933307 1.670633 -34.270611 23.390265 -0.000001 0.000002 -0.000002 0.247727 3.816693 -15.313393 0.493146 2.354541 -23.655607 0.192118 1.489457 -14.698577 -0.000001 -0.000000 -0.000000 1.351806 7.517416 -16.467567 0.451671 2.257567 -22.624868 0.405808 2.144294 -21.430697 -0.000000 -0.000000 -0.000001 1.771974 8.641196 -17.376963 1.296839 3.677292 -38.840704 0.356840 2.015169 -20.081400 0.000000 0.000001 0.000000 0.828654 5.356477 -23.245157 0.713602 2.804014 -28.551265 0.182655 1.452921 -14.330054 0.000001 -0.000000 -0.000002 -0.514289 12.288115 23.736709 -22.070783 27.075145 46.252361 0.000001 19.083047 0.000004 9.662735 5.978435 5.641790 -6.439874 1.666974 -14.227991 17.923065 -21.104921 7.813705 -18.054883 14.978286 -10.241823 0.000000 -0.000003 0.000001 -1.537609 3.066786 16.059960 0.622107 -2.327320 29.927512 0.421626 -1.938084 24.543890 -0.000000 -0.000003 -0.000000 -1.385627 1.199335 18.852589 1.045698 -2.942441 39.121893 0.325864 -1.713068 21.538856 -0.000002 -0.000002 0.000000 -0.166719 -2.270735 16.967809 1.500376 -3.425759 47.294030 0.281197 -1.595325 19.991848 -0.000004 -0.000000 -0.000002 -12.839456 -10.985022 14.048237 1.010333 -2.898478 38.427700 0.243496 -1.487675 18.590732 -0.000001 -0.000001 -0.000000 -30.160944 5.650585 2.735491 19.381212 4.790073 -0.991756 -0.440137 0.349640 -3.857796 -0.147258 -0.000001 -0.000001 0.000001 -0.000000 0.000000 -3.637703 -6.492943 -0.503122 24.326994 -4.827901 -1.603360 -21.902035 -0.629370 0.524953 0.144378 0.000005 -0.000001 -0.000000 -0.000002 0.000000 
